<svg id="visual" viewBox="0 0 900 600" width="900" height="600" xmlns="http://www.w3.org/2000/svg" xmlns:xlink="http://www.w3.org/1999/xlink" version="1.1"><rect x="0" y="0" width="900" height="600" fill="#111"></rect><path d="M0 361L21.5 372.8C43 384.7 86 408.3 128.8 411.5C171.7 414.7 214.3 397.3 257.2 394.8C300 392.3 343 404.7 385.8 400.8C428.7 397 471.3 377 514.2 376.3C557 375.7 600 394.3 642.8 406.8C685.7 419.3 728.3 425.7 771.2 418.8C814 412 857 392 878.5 382L900 372L900 601L878.5 601C857 601 814 601 771.2 601C728.3 601 685.7 601 642.8 601C600 601 557 601 514.2 601C471.3 601 428.7 601 385.8 601C343 601 300 601 257.2 601C214.3 601 171.7 601 128.8 601C86 601 43 601 21.5 601L0 601Z" fill="#b2dfdb"></path><path d="M0 428L21.5 428.5C43 429 86 430 128.8 426.5C171.7 423 214.3 415 257.2 414.8C300 414.7 343 422.3 385.8 427.8C428.7 433.3 471.3 436.7 514.2 433.8C557 431 600 422 642.8 422.7C685.7 423.3 728.3 433.7 771.2 438.3C814 443 857 442 878.5 441.5L900 441L900 601L878.5 601C857 601 814 601 771.2 601C728.3 601 685.7 601 642.8 601C600 601 557 601 514.2 601C471.3 601 428.7 601 385.8 601C343 601 300 601 257.2 601C214.3 601 171.7 601 128.8 601C86 601 43 601 21.5 601L0 601Z" fill="#90ccc7"></path><path d="M0 463L21.5 466.7C43 470.3 86 477.7 128.8 485C171.7 492.3 214.3 499.7 257.2 499.5C300 499.3 343 491.7 385.8 482.2C428.7 472.7 471.3 461.3 514.2 460C557 458.7 600 467.3 642.8 469.5C685.7 471.7 728.3 467.3 771.2 467.7C814 468 857 473 878.5 475.5L900 478L900 601L878.5 601C857 601 814 601 771.2 601C728.3 601 685.7 601 642.8 601C600 601 557 601 514.2 601C471.3 601 428.7 601 385.8 601C343 601 300 601 257.2 601C214.3 601 171.7 601 128.8 601C86 601 43 601 21.5 601L0 601Z" fill="#6dbab2"></path><path d="M0 490L21.5 497.3C43 504.7 86 519.3 128.8 526.2C171.7 533 214.3 532 257.2 527.2C300 522.3 343 513.7 385.8 509.3C428.7 505 471.3 505 514.2 510.2C557 515.3 600 525.7 642.8 524.5C685.7 523.3 728.3 510.7 771.2 507.2C814 503.7 857 509.3 878.5 512.2L900 515L900 601L878.5 601C857 601 814 601 771.2 601C728.3 601 685.7 601 642.8 601C600 601 557 601 514.2 601C471.3 601 428.7 601 385.8 601C343 601 300 601 257.2 601C214.3 601 171.7 601 128.8 601C86 601 43 601 21.5 601L0 601Z" fill="#46a89d"></path><path d="M0 565L21.5 563.5C43 562 86 559 128.8 560C171.7 561 214.3 566 257.2 562.7C300 559.3 343 547.7 385.8 543.2C428.7 538.7 471.3 541.3 514.2 540.3C557 539.3 600 534.7 642.8 532.7C685.7 530.7 728.3 531.3 771.2 531.2C814 531 857 530 878.5 529.5L900 529L900 601L878.5 601C857 601 814 601 771.2 601C728.3 601 685.7 601 642.8 601C600 601 557 601 514.2 601C471.3 601 428.7 601 385.8 601C343 601 300 601 257.2 601C214.3 601 171.7 601 128.8 601C86 601 43 601 21.5 601L0 601Z" fill="#009688"></path></svg>